<svg width="1000" height="1000" viewBox="0 0 1000 1000" fill="none" xmlns="http://www.w3.org/2000/svg">
<g clip-path="url(#clip0_83_4)">
<path d="M921.715 368.261C921.715 402.212 917.519 432.539 909.126 459.242C900.734 485.945 889.29 509.596 874.794 530.195C860.68 550.413 844.276 567.77 825.584 582.266C806.892 596.762 787.247 608.778 766.647 618.315C746.429 627.47 725.83 634.146 704.849 638.342C684.25 642.538 664.795 644.636 646.484 644.636L957.191 913H727.165L417.03 644.636H310.028V495.863H646.484C665.176 494.337 682.152 490.522 697.411 484.419C713.051 477.934 726.402 469.351 737.465 458.67C748.909 447.988 757.683 435.209 763.786 420.332C769.89 405.073 772.942 387.716 772.942 368.261V274.42C772.942 266.027 771.797 259.733 769.508 255.537C767.601 250.959 764.931 247.717 761.497 245.809C758.446 243.521 755.013 242.185 751.198 241.804C747.765 241.423 744.522 241.232 741.47 241.232H250.519V913H101.746V167.417C101.746 157.118 103.653 147.39 107.468 138.235C111.282 129.08 116.432 121.069 122.917 114.202C129.784 107.336 137.794 101.995 146.95 98.1807C156.105 94.366 166.023 92.4586 176.704 92.4586H741.47C774.658 92.4586 802.696 98.5621 825.584 110.769C848.473 122.595 866.974 137.663 881.088 155.973C895.584 173.902 905.884 193.357 911.987 214.338C918.472 235.319 921.715 254.965 921.715 273.275V368.261Z" fill="#1C1917"/>
</g>
<defs>
<clipPath id="clip0_83_4">
<rect width="1000" height="1000" fill="white"/>
</clipPath>
</defs>
</svg>
